<svg width="1305" height="295" viewBox="0 0 1305 295" fill="none" xmlns="http://www.w3.org/2000/svg">
<path d="M257.9 292H187.79L70.53 114.47V292H0.420001V4.17999H70.53L187.79 182.53V4.17999H257.9V292ZM444.841 294.87C417.781 294.87 392.907 288.583 370.221 276.01C347.807 263.437 329.904 245.943 316.511 223.53C303.391 200.843 296.831 175.423 296.831 147.27C296.831 119.117 303.391 93.8333 316.511 71.42C329.904 49.0067 347.807 31.5133 370.221 18.94C392.907 6.36666 417.781 0.0799949 444.841 0.0799949C471.901 0.0799949 496.637 6.36666 519.051 18.94C541.737 31.5133 559.504 49.0067 572.351 71.42C585.471 93.8333 592.031 119.117 592.031 147.27C592.031 175.423 585.471 200.843 572.351 223.53C559.231 245.943 541.464 263.437 519.051 276.01C496.637 288.583 471.901 294.87 444.841 294.87ZM444.841 230.91C467.801 230.91 486.114 223.257 499.781 207.95C513.721 192.643 520.691 172.417 520.691 147.27C520.691 121.85 513.721 101.623 499.781 86.59C486.114 71.2833 467.801 63.63 444.841 63.63C421.607 63.63 403.021 71.1467 389.081 86.18C375.414 101.213 368.581 121.577 368.581 147.27C368.581 172.69 375.414 193.053 389.081 208.36C403.021 223.393 421.607 230.91 444.841 230.91ZM838.085 4.17999V60.35H761.825V292H691.715V60.35H615.455V4.17999H838.085ZM943.382 60.35V118.57H1037.27V172.69H943.382V235.83H1049.57V292H873.272V4.17999H1049.57V60.35H943.382ZM1199.23 294.87C1178.18 294.87 1159.32 291.453 1142.65 284.62C1125.97 277.787 1112.58 267.673 1102.47 254.28C1092.63 240.887 1087.43 224.76 1086.89 205.9H1161.51C1162.6 216.56 1166.29 224.76 1172.58 230.5C1178.86 235.967 1187.06 238.7 1197.18 238.7C1207.56 238.7 1215.76 236.377 1221.78 231.73C1227.79 226.81 1230.8 220.113 1230.8 211.64C1230.8 204.533 1228.34 198.657 1223.42 194.01C1218.77 189.363 1212.89 185.537 1205.79 182.53C1198.95 179.523 1189.11 176.107 1176.27 172.28C1157.68 166.54 1142.51 160.8 1130.76 155.06C1119 149.32 1108.89 140.847 1100.42 129.64C1091.94 118.433 1087.71 103.81 1087.71 85.77C1087.71 58.9833 1097.41 38.0733 1116.82 23.04C1136.22 7.73333 1161.51 0.0799949 1192.67 0.0799949C1224.37 0.0799949 1249.93 7.73333 1269.34 23.04C1288.74 38.0733 1299.13 59.12 1300.5 86.18H1224.65C1224.1 76.8867 1220.68 69.6433 1214.4 64.45C1208.11 58.9833 1200.05 56.25 1190.21 56.25C1181.73 56.25 1174.9 58.5733 1169.71 63.22C1164.51 67.5933 1161.92 74.0166 1161.92 82.49C1161.92 91.7833 1166.29 99.0267 1175.04 104.22C1183.78 109.413 1197.45 115.017 1216.04 121.03C1234.62 127.317 1249.66 133.33 1261.14 139.07C1272.89 144.81 1283 153.147 1291.48 164.08C1299.95 175.013 1304.19 189.09 1304.19 206.31C1304.19 222.71 1299.95 237.607 1291.48 251C1283.28 264.393 1271.25 275.053 1255.4 282.98C1239.54 290.907 1220.82 294.87 1199.23 294.87Z" fill="white"/>
</svg>
