<svg version="1.0" id="Layer_1" xmlns="http://www.w3.org/2000/svg" xmlns:xlink="http://www.w3.org/1999/xlink" x="0px" y="0px" width="100px" height="100px" viewBox="0 0 100 100" enable-background="new 0 0 100 100" xml:space="preserve">
<path fill="#4D5ACF" d="M76.667,23.332V9.999h-60v46.668c0,7.24-2.22,14.479-6.667,20h20v13.334h60V23.332H76.667z M21.134,70.001
	c1.442-4.174,2.199-8.691,2.199-13.334V16.666H70v40.001c0,4.916-1.218,9.545-3.47,13.334H21.134z M83.333,83.334H36.667v-6.667H70
	c4.446-5.521,6.667-12.76,6.667-20V29.999h6.666V83.334z" id="id_103"></path>
<polygon fill="#fff" points="53.62,31.669 46.667,38.62 39.717,31.669 35,36.382 41.953,43.335 35,50.287 39.713,55.001 46.667,48.049 
	53.62,55.001 58.333,50.287 51.38,43.335 58.333,36.381 " id="id_104"></polygon>
</svg>